<svg xmlns="http://www.w3.org/2000/svg" x="0px" y="0px"
width="100" height="100"
viewBox="0 0 64 64"
style="fill:#ffffff;">    <path d="M 44.142578 3.4492188 C 41.325828 3.4492188 38.508281 4.5215156 36.363281 6.6660156 L 30.707031 12.322266 C 27.927031 15.102266 26.839141 19.189281 27.869141 22.988281 C 28.147141 24.013281 28.933703 24.792359 29.970703 25.068359 C 31.024703 25.348359 32.115766 25.057063 32.884766 24.289062 L 34.636719 22.535156 C 35.228719 21.943156 35.544906 21.103516 35.503906 20.228516 C 35.462906 19.375516 35.767281 18.577469 36.363281 17.980469 L 42.019531 12.322266 C 43.188531 11.154266 45.092672 11.153266 46.263672 12.322266 L 47.677734 13.736328 C 48.243734 14.303328 48.556641 15.057375 48.556641 15.859375 C 48.556641 16.661375 48.244734 17.413469 47.677734 17.980469 L 42.019531 23.638672 C 41.423531 24.234672 40.617438 24.540047 39.773438 24.498047 C 38.915438 24.458047 38.056844 24.773234 37.464844 25.365234 L 35.712891 27.117188 C 34.942891 27.886187 34.649641 28.977203 34.931641 30.033203 C 35.207641 31.070203 35.986719 31.853813 37.011719 32.132812 C 37.959719 32.389812 38.923812 32.515625 39.882812 32.515625 C 42.767812 32.515625 45.590734 31.382875 47.677734 29.296875 L 53.333984 23.638672 C 55.411984 21.560672 56.556641 18.799328 56.556641 15.861328 C 56.557641 12.919328 55.411984 10.157078 53.333984 8.0800781 L 51.919922 6.6660156 C 49.775922 4.5215156 46.959328 3.4492187 44.142578 3.4492188 z M 44.142578 5.4472656 C 46.447078 5.4471406 48.750859 6.323625 50.505859 8.078125 L 51.919922 9.4921875 C 53.619922 11.192187 54.556641 13.453422 54.556641 15.857422 C 54.556641 18.262422 53.621875 20.521656 51.921875 22.222656 L 46.263672 27.878906 C 43.988672 30.153906 40.643156 31.042219 37.535156 30.199219 C 37.060156 30.071219 36.909234 29.679578 36.865234 29.517578 C 36.770234 29.158578 36.867953 28.79025 37.126953 28.53125 L 38.880859 26.777344 C 39.064859 26.593344 39.323234 26.494141 39.615234 26.494141 C 39.636234 26.494141 39.656734 26.495094 39.677734 26.496094 C 41.073734 26.560094 42.447594 26.036781 43.433594 25.050781 L 49.091797 19.394531 C 50.035797 18.450531 50.556641 17.193422 50.556641 15.857422 C 50.556641 14.521422 50.035797 13.267266 49.091797 12.322266 L 47.677734 10.908203 C 45.727734 8.9582031 42.553469 8.9592031 40.605469 10.908203 L 34.949219 16.564453 C 33.964219 17.549453 33.437859 18.920266 33.505859 20.322266 C 33.521859 20.639266 33.419656 20.922141 33.222656 21.119141 L 31.470703 22.873047 C 31.211703 23.131047 30.839375 23.227766 30.484375 23.134766 C 30.321375 23.091766 29.929781 22.938844 29.800781 22.464844 C 28.957781 19.355844 29.847094 16.011328 32.121094 13.736328 L 37.777344 8.078125 C 39.532344 6.324125 41.838078 5.4473906 44.142578 5.4472656 z M 20.625 10.275391 C 20.496688 10.296656 20.371156 10.344219 20.253906 10.417969 C 19.786906 10.713969 19.648359 11.332828 19.943359 11.798828 L 22.943359 16.529297 C 23.133359 16.829297 23.458063 16.994141 23.789062 16.994141 C 23.972062 16.994141 24.156266 16.944844 24.322266 16.839844 C 24.789266 16.543844 24.927812 15.924984 24.632812 15.458984 L 21.632812 10.726562 C 21.411562 10.377063 21.009937 10.211594 20.625 10.275391 z M 12.646484 11.441406 C 12.390734 11.441406 12.134953 11.538875 11.939453 11.734375 C 11.548453 12.125375 11.548453 12.757437 11.939453 13.148438 L 18.353516 19.5625 C 18.548516 19.7575 18.804547 19.855469 19.060547 19.855469 C 19.316547 19.855469 19.572578 19.7575 19.767578 19.5625 C 20.158578 19.1715 20.158578 18.539438 19.767578 18.148438 L 13.353516 11.734375 C 13.158016 11.538875 12.902234 11.441406 12.646484 11.441406 z M 11.630859 19.595703 C 11.246063 19.531766 10.844297 19.697375 10.623047 20.046875 C 10.327047 20.513875 10.466594 21.131734 10.933594 21.427734 L 15.664062 24.427734 C 15.830063 24.532734 16.017219 24.582031 16.199219 24.582031 C 16.530219 24.582031 16.853922 24.417187 17.044922 24.117188 C 17.340922 23.650188 17.201375 23.034281 16.734375 22.738281 L 12.003906 19.738281 C 11.886906 19.664281 11.759125 19.617016 11.630859 19.595703 z M 20.111328 27.488281 C 17.228609 27.490063 14.406516 28.620078 12.322266 30.705078 L 6.6660156 36.363281 C 4.5880156 38.441281 3.4433594 41.202625 3.4433594 44.140625 C 3.4433594 47.078625 4.5899688 49.841922 6.6679688 51.919922 L 8.0800781 53.332031 C 10.225078 55.477031 13.042375 56.550781 15.859375 56.550781 C 18.675375 56.550781 21.492719 55.476031 23.636719 53.332031 L 29.292969 47.677734 C 32.072969 44.897734 33.160859 40.809766 32.130859 37.009766 C 31.852859 35.985766 31.066297 35.209594 30.029297 34.933594 C 28.973297 34.652594 27.883234 34.943891 27.115234 35.712891 L 25.363281 37.464844 C 24.769281 38.056844 24.453094 38.899438 24.496094 39.773438 C 24.537094 40.626438 24.232719 41.424484 23.636719 42.021484 L 17.980469 47.677734 C 16.811469 48.845734 14.907328 48.847734 13.736328 47.677734 L 12.322266 46.263672 C 11.152266 45.093672 11.152266 43.191484 12.322266 42.021484 L 17.980469 36.363281 C 18.577469 35.766281 19.376562 35.460906 20.226562 35.503906 C 21.102563 35.547906 21.943156 35.229719 22.535156 34.636719 L 24.287109 32.884766 C 25.057109 32.115766 25.350359 31.02475 25.068359 29.96875 C 24.792359 28.93175 24.013281 28.148141 22.988281 27.869141 C 22.038531 27.612141 21.072234 27.487687 20.111328 27.488281 z M 20.113281 29.486328 C 20.898281 29.486328 21.688844 29.590781 22.464844 29.800781 C 22.939844 29.928781 23.090766 30.320422 23.134766 30.482422 C 23.229766 30.841422 23.132047 31.20975 22.873047 31.46875 L 21.119141 33.222656 C 20.921141 33.420656 20.639266 33.517906 20.322266 33.503906 C 18.935266 33.434906 17.550453 33.963219 16.564453 34.949219 L 10.908203 40.605469 C 8.9592031 42.555469 8.9592031 45.728734 10.908203 47.677734 L 12.322266 49.091797 C 14.272266 51.041797 17.444578 51.040797 19.392578 49.091797 L 25.048828 43.433594 C 26.033828 42.448594 26.562141 41.078781 26.494141 39.675781 C 26.478141 39.359781 26.578391 39.077859 26.775391 38.880859 L 28.529297 37.126953 C 28.788297 36.867953 29.156625 36.769234 29.515625 36.865234 C 29.677625 36.908234 30.070219 37.059203 30.199219 37.533203 C 31.043219 40.644203 30.152906 43.988672 27.878906 46.263672 L 22.222656 51.919922 C 20.522656 53.619922 18.263375 54.556641 15.859375 54.556641 C 13.455375 54.556641 11.194141 53.619922 9.4941406 51.919922 L 8.0800781 50.505859 C 6.3800781 48.805859 5.4433594 46.546578 5.4433594 44.142578 C 5.4433594 41.738578 6.378125 39.477344 8.078125 37.777344 L 13.736328 32.121094 C 15.443328 30.414094 17.753281 29.486328 20.113281 29.486328 z M 44.5625 35.617188 C 44.177703 35.55325 43.775937 35.718859 43.554688 36.068359 C 43.258688 36.535359 43.398234 37.153219 43.865234 37.449219 L 48.597656 40.449219 C 48.763656 40.554219 48.948859 40.603516 49.130859 40.603516 C 49.461859 40.603516 49.785562 40.440625 49.976562 40.140625 C 50.271563 39.674625 50.134969 39.055766 49.667969 38.759766 L 44.935547 35.759766 C 44.818547 35.685766 44.690766 35.6385 44.5625 35.617188 z M 41.539062 40.332031 C 41.283313 40.332031 41.027531 40.431453 40.832031 40.626953 C 40.441031 41.017953 40.441031 41.648063 40.832031 42.039062 L 47.246094 48.453125 C 47.441094 48.648125 47.697125 48.746094 47.953125 48.746094 C 48.209125 48.746094 48.465156 48.648125 48.660156 48.453125 C 49.051156 48.062125 49.051156 47.430062 48.660156 47.039062 L 42.246094 40.626953 C 42.050594 40.431453 41.794812 40.332031 41.539062 40.332031 z M 36.646484 43.207031 C 36.518344 43.228172 36.392141 43.276109 36.275391 43.349609 C 35.808391 43.645609 35.669844 44.262516 35.964844 44.728516 L 38.964844 49.460938 C 39.154844 49.760937 39.479547 49.925781 39.810547 49.925781 C 39.993547 49.925781 40.179703 49.874531 40.345703 49.769531 C 40.812703 49.473531 40.949297 48.856625 40.654297 48.390625 L 37.654297 43.658203 C 37.432297 43.309453 37.030906 43.143609 36.646484 43.207031 z"></path></svg>